<?xml version="1.0" encoding="UTF-8"?>
<svg id="_레이어_2" data-name="레이어_2" xmlns="http://www.w3.org/2000/svg" viewBox="0 0 434 712">
  <defs>
    <style>
      .cls-1 {
        fill: #bf9001;
      }

      .cls-2 {
        fill: #ffd44c;
      }

      .cls-3 {
        fill: #fff;
      }

      .cls-4 {
        fill: #f3eadf;
      }
    </style>
  </defs>
  <g id="_레이어_2-2" data-name="_레이어_2">
    <rect class="cls-4" x="1" y="1" width="432" height="710" rx="42.81" ry="42.81"/>
    <path class="cls-3" d="M390.19,2c23.09,0,41.81,18.72,41.81,41.81v624.38c0,23.09-18.72,41.81-41.81,41.81H43.81c-23.09,0-41.81-18.72-41.81-41.81V43.81C2,20.72,20.72,2,43.81,2h346.38M390.19,0H43.81C19.65,0,0,19.65,0,43.81v624.38c0,24.16,19.65,43.81,43.81,43.81h346.38c24.16,0,43.81-19.65,43.81-43.81V43.81c0-24.16-19.65-43.81-43.81-43.81h0Z"/>
    <ellipse class="cls-2" cx="217" cy="355.5" rx="173.5" ry="272.5"/>
    <path class="cls-3" d="M84.57,328.58c0,.91.11,1.62.33,2.13.22.51.5.89.83,1.16.33.26.69.45,1.08.55s.75.21,1.08.33c.33.12.61.29.83.5s.33.56.33,1.05c0,2.53-1.19,4.36-3.57,5.49s-5.82,1.69-10.32,1.69c-2.18,0-4.11-.14-5.8-.41-1.69-.27-3.11-.7-4.26-1.28-1.15-.58-2.03-1.32-2.63-2.23-.6-.91-.9-2-.9-3.25,0-.49.11-.84.33-1.05s.49-.38.82-.49c.32-.11.67-.22,1.05-.32.38-.1.73-.28,1.05-.53.32-.25.59-.62.82-1.11.22-.49.33-1.19.33-2.1v-22.93c0-.89-.11-1.59-.33-2.08-.22-.5-.49-.87-.82-1.12s-.67-.43-1.05-.53c-.38-.1-.73-.21-1.05-.32-.32-.11-.6-.27-.82-.49s-.33-.56-.33-1.05c0-1.26.3-2.34.9-3.24.6-.9,1.48-1.64,2.63-2.22,1.15-.58,2.57-1,4.26-1.28,1.69-.27,3.62-.41,5.8-.41s4.24.14,5.98.41c1.73.27,3.19.7,4.36,1.28s2.06,1.32,2.66,2.22.9,1.98.9,3.24c0,.49-.11.84-.33,1.05s-.49.38-.82.49c-.32.11-.68.22-1.06.32-.39.1-.74.28-1.07.53s-.59.63-.82,1.12c-.22.5-.33,1.19-.33,2.08l-.06,22.8Z"/>
    <path class="cls-3" d="M133.45,329.76c0,.83.1,1.48.3,1.95.2.47.45.82.75,1.05s.62.4.98.49.69.19.98.29c.29.1.54.25.75.44.2.19.3.51.3.96,0,2.31-1.09,3.98-3.27,5-2.18,1.02-5.32,1.54-9.44,1.54-1.11,0-2.07-.09-2.9-.27-.83-.18-1.55-.44-2.14-.78-.6-.33-1.09-.74-1.48-1.22-.39-.48-.7-1.01-.94-1.6-.48.49-1.07,1-1.76,1.55-.69.55-1.53,1.05-2.52,1.51-.99.46-2.12.83-3.4,1.12-1.28.29-2.74.44-4.39.44-1.86,0-3.51-.28-4.94-.85-1.43-.57-2.67-1.34-3.71-2.33s-1.91-2.13-2.61-3.45c-.7-1.32-1.26-2.73-1.69-4.23-.42-1.5-.72-3.05-.9-4.65-.18-1.6-.26-3.18-.26-4.74s.11-3.22.32-4.86c.21-1.64.56-3.23,1.05-4.77.49-1.54,1.12-2.99,1.88-4.35.77-1.36,1.7-2.54,2.79-3.54s2.38-1.8,3.85-2.39c1.47-.59,3.13-.88,4.99-.88,1.31,0,2.5.11,3.57.32,1.07.21,2.03.49,2.89.84.86.34,1.61.74,2.27,1.19.65.45,1.22.89,1.7,1.34v-9.15c0-.83-.1-1.46-.29-1.9-.19-.44-.44-.77-.75-1-.3-.23-.63-.39-.97-.47-.34-.08-.66-.17-.97-.27-.3-.1-.55-.25-.75-.44-.19-.19-.29-.51-.29-.96,0-1.16.27-2.14.82-2.96.54-.82,1.34-1.5,2.39-2.04,1.05-.54,2.34-.93,3.87-1.17,1.53-.24,3.28-.36,5.26-.36s3.56.11,4.72.33c1.15.22,2.03.6,2.63,1.14.6.54.98,1.26,1.15,2.17s.25,2.06.25,3.44l-.11,38.55ZM112.48,334.51c.74,0,1.47-.14,2.19-.43.72-.28,1.35-.6,1.88-.94-.04-.53-.06-1.06-.06-1.6v-20.9c-.63-.41-1.32-.79-2.08-1.14-.76-.35-1.53-.53-2.32-.53-.85,0-1.54.21-2.09.64-.54.43-.97,1.14-1.29,2.14-.31,1-.53,2.35-.65,4.04-.12,1.69-.18,3.8-.18,6.31,0,1.52.05,3.02.14,4.5.09,1.48.29,2.8.61,3.97.31,1.17.77,2.11,1.38,2.84.61.73,1.43,1.09,2.46,1.09Z"/>
    <path class="cls-3" d="M158.72,301.18c2.47,0,4.7.41,6.68,1.22,1.98.81,3.67,1.93,5.06,3.34,1.39,1.42,2.46,3.09,3.21,5s1.12,3.98,1.12,6.19c0,.91-.12,1.62-.35,2.13-.23.51-.56.88-.98,1.12s-.95.4-1.58.46c-.63.06-1.34.09-2.13.09h-13.31c0,2.23.21,4.04.62,5.43.42,1.39.99,2.47,1.73,3.24.74.77,1.62,1.29,2.66,1.57,1.03.27,2.18.41,3.43.41.66,0,1.35-.07,2.06-.21.71-.14,1.39-.32,2.05-.55.65-.22,1.26-.46,1.81-.7.55-.24,1.01-.48,1.38-.7.29-.18.58-.27.86-.27.42,0,.76.2,1,.59.24.4.36.84.36,1.32,0,.16,0,.31-.03.46-.02.14-.06.28-.11.43-.54,1.5-1.26,2.89-2.19,4.17-.92,1.28-2.04,2.39-3.36,3.33-1.32.94-2.85,1.68-4.58,2.2-1.73.53-3.68.79-5.84.79s-3.95-.27-5.66-.81c-1.71-.54-3.25-1.29-4.62-2.25-1.37-.96-2.58-2.09-3.61-3.39-1.03-1.3-1.89-2.71-2.57-4.24-.68-1.53-1.19-3.13-1.54-4.8s-.51-3.36-.51-5.06.18-3.43.53-5.12c.35-1.69.88-3.3,1.58-4.82.7-1.52,1.58-2.92,2.63-4.21,1.05-1.29,2.28-2.4,3.68-3.34,1.4-.94,2.98-1.68,4.73-2.2,1.75-.53,3.68-.79,5.78-.79ZM160.77,308.97c-.59,0-1.14.15-1.66.44-.52.29-.96.75-1.34,1.35-.38.61-.67,1.38-.89,2.33-.21.94-.32,2.06-.32,3.36h8.83c0-1.42-.1-2.61-.3-3.57-.2-.96-.5-1.73-.89-2.31-.39-.58-.87-.99-1.45-1.23-.58-.24-1.24-.37-1.98-.37Z"/>
    <path class="cls-3" d="M208.93,341.47c-.94,0-1.88-.06-2.81-.17-.93-.11-1.82-.34-2.66-.68-.84-.34-1.61-.84-2.31-1.49-.7-.65-1.3-1.51-1.8-2.58-.37.95-.96,1.78-1.78,2.49-.82.71-1.75,1.3-2.79,1.78-1.04.48-2.14.83-3.29,1.06-1.15.23-2.25.35-3.31.35-1.86,0-3.5-.24-4.9-.73-1.4-.49-2.58-1.18-3.54-2.08-.96-.9-1.68-1.98-2.16-3.24-.48-1.26-.72-2.67-.72-4.23,0-1.84.28-3.59.84-5.24.56-1.65,1.52-3.1,2.88-4.33,1.36-1.24,3.17-2.21,5.44-2.93,2.27-.72,5.11-1.08,8.52-1.08h3.79c0-2.25-.07-4.11-.21-5.59-.14-1.48-.36-2.66-.65-3.53-.3-.87-.66-1.48-1.11-1.82s-.98-.52-1.6-.52c-.7,0-1.29.23-1.76.7-.47.47-.85,1.14-1.13,2.02-.29.88-.49,1.95-.61,3.19-.12,1.25-.18,2.66-.18,4.24-.79,0-1.63-.02-2.5-.05-.88-.03-1.74-.11-2.6-.23s-1.67-.31-2.44-.56-1.44-.6-2.03-1.03-1.06-.99-1.41-1.66c-.35-.67-.53-1.48-.53-2.43,0-1.34.32-2.6.95-3.8s1.61-2.25,2.93-3.15,2.99-1.62,5.02-2.16c2.03-.54,4.45-.81,7.25-.81,3.26,0,6.08.36,8.44,1.09,2.36.73,4.3,1.82,5.82,3.28,1.52,1.46,2.65,3.3,3.38,5.52.73,2.22,1.09,4.82,1.09,7.8v10.76c0,.87.11,1.55.32,2.04.21.49.47.86.77,1.11.3.25.64.43,1.01.53.37.1.71.21,1.01.32.3.11.56.26.77.46.21.19.32.51.32.96,0,2.03-.83,3.6-2.48,4.73-1.65,1.12-4.07,1.69-7.26,1.69ZM195.6,335.24c.61,0,1.1-.11,1.48-.32.38-.21.67-.52.87-.91.2-.4.34-.88.4-1.46.06-.58.1-1.23.1-1.96,0-.63,0-1.43-.03-2.4-.02-.97-.04-1.93-.06-2.86-.04-1.09-.06-2.23-.08-3.41-.26-.04-.5-.08-.73-.11-.23-.03-.46-.05-.68-.05-.94,0-1.73.21-2.37.62s-1.15.99-1.54,1.73c-.39.74-.66,1.61-.82,2.61s-.23,2.09-.23,3.27c0,.71.04,1.38.11,2.02s.24,1.2.5,1.67c.26.48.63.85,1.12,1.12s1.14.41,1.95.41Z"/>
    <path class="cls-3" d="M239.29,326.33c0,.67.02,1.31.06,1.93s.15,1.17.33,1.66c.18.49.47.87.86,1.16.39.28.92.43,1.61.43.96,0,1.79-.14,2.5-.41.71-.27,1.44-.63,2.2-1.08.29-.18.57-.27.83-.27.42,0,.76.2,1.01.61.25.41.37.86.37,1.37,0,.35-.04.63-.14.85-.54,1.5-1.22,2.85-2.06,4.04-.84,1.2-1.81,2.21-2.91,3.04s-2.3,1.47-3.61,1.92c-1.31.45-2.71.67-4.21.67-2.07,0-3.84-.29-5.31-.87-1.48-.58-2.72-1.35-3.74-2.31-1.01-.96-1.83-2.08-2.43-3.34-.61-1.27-1.08-2.59-1.4-3.98-.32-1.39-.54-2.79-.64-4.2-.1-1.41-.15-2.74-.15-4v-15.39h-1.36c-.68,0-1.22-.22-1.6-.65-.39-.44-.58-.92-.58-1.44,0-.63.26-1.16.78-1.58,2.16-1.7,4.13-3.35,5.92-4.94s3.33-3.02,4.62-4.27c1.51-1.46,2.87-2.83,4.07-4.1.48-.53.97-.92,1.47-1.17s.98-.38,1.44-.38c.57,0,1.05.21,1.44.64.39.43.58,1.08.58,1.98v9.85h6.75c.22,0,.48.02.79.05.3.03.59.14.87.32.28.18.51.47.71.87.19.4.29.96.29,1.69,0,.79-.09,1.4-.28,1.82-.18.43-.41.74-.69.94s-.57.32-.87.35c-.3.03-.58.05-.82.05h-6.75l.06,18.18Z"/>
    <path class="cls-3" d="M272,329.89c0,.81.1,1.44.3,1.89.2.45.46.79.76,1.02.3.23.63.39.98.47.35.08.68.17.98.27s.56.25.76.44c.2.19.3.51.3.96,0,2.31-1.09,3.98-3.26,5-2.18,1.02-5.32,1.54-9.44,1.54-1.99,0-3.75-.12-5.29-.36s-2.82-.63-3.87-1.17c-1.05-.54-1.85-1.22-2.39-2.04-.54-.82-.82-1.81-.82-2.96,0-.45.1-.77.3-.96.2-.19.45-.34.75-.44s.62-.19.97-.27c.35-.08.67-.24.97-.47.29-.23.54-.57.75-1,.2-.44.3-1.07.3-1.9v-16.24c0-.81-.1-1.44-.3-1.89-.2-.45-.45-.79-.75-1.02-.3-.23-.62-.39-.97-.47-.35-.08-.67-.17-.97-.27s-.54-.25-.75-.44c-.2-.19-.3-.51-.3-.96,0-1.16.27-2.14.82-2.96s1.34-1.5,2.39-2.04c1.05-.54,2.34-.93,3.87-1.17s3.29-.36,5.29-.36,3.56.11,4.7.33c1.14.22,2.01.6,2.59,1.14.58.54.94,1.26,1.09,2.17.15.91.22,2.06.22,3.44v20.74ZM254.84,291.6c0-1.01.16-1.9.48-2.66.32-.76.74-1.42,1.25-1.98.51-.56,1.09-1.02,1.74-1.4.66-.38,1.31-.67,1.98-.9s1.3-.38,1.92-.47c.62-.09,1.16-.14,1.62-.14.5,0,1.07.05,1.7.14.64.09,1.29.25,1.95.47s1.32.52,1.96.9c.65.38,1.22.84,1.73,1.4.51.56.91,1.22,1.22,1.98.3.76.46,1.65.46,2.66s-.15,1.88-.46,2.65c-.3.77-.71,1.43-1.22,1.98-.51.55-1.08,1.01-1.73,1.38-.64.38-1.3.67-1.96.9-.66.22-1.31.38-1.95.47-.64.09-1.2.14-1.7.14-.46,0-1-.05-1.62-.14-.62-.09-1.26-.25-1.92-.47-.66-.22-1.32-.52-1.98-.9-.65-.38-1.24-.84-1.74-1.38-.51-.55-.92-1.2-1.25-1.96-.32-.76-.48-1.65-.48-2.66Z"/>
    <path class="cls-3" d="M297.92,342.23c-2.2,0-4.21-.28-6.05-.85s-3.49-1.34-4.95-2.33-2.75-2.14-3.86-3.48-2.03-2.78-2.77-4.33c-.74-1.55-1.29-3.17-1.66-4.85-.37-1.68-.55-3.36-.55-5.05s.2-3.42.59-5.09,1-3.26,1.8-4.76,1.8-2.88,3-4.14c1.2-1.26,2.61-2.34,4.22-3.25s3.43-1.63,5.45-2.14c2.02-.52,4.25-.78,6.68-.78,2.14,0,4.1.26,5.88.79,1.78.53,3.39,1.25,4.83,2.17,1.44.92,2.7,2.01,3.78,3.27s1.98,2.62,2.7,4.1c.72,1.48,1.26,3.04,1.62,4.68.36,1.64.54,3.29.54,4.96s-.19,3.45-.58,5.17c-.39,1.72-.97,3.36-1.76,4.93-.79,1.56-1.77,3.01-2.95,4.35-1.18,1.34-2.56,2.5-4.14,3.48-1.58.98-3.35,1.75-5.33,2.31-1.97.56-4.14.84-6.5.84ZM299.16,334.45c.61,0,1.12-.2,1.54-.59.41-.4.75-.97,1.01-1.72.26-.75.44-1.66.55-2.72.11-1.06.17-2.25.17-3.57,0-1.16,0-2.38-.03-3.66-.02-1.29-.06-2.55-.14-3.8s-.19-2.44-.36-3.57c-.17-1.13-.4-2.14-.71-3.01-.3-.87-.69-1.56-1.15-2.07-.46-.51-1.02-.76-1.69-.76s-1.2.2-1.65.59c-.45.4-.83.95-1.12,1.66-.29.71-.51,1.56-.65,2.55-.14.99-.21,2.09-.21,3.28,0,1.12.02,2.32.05,3.62.04,1.3.11,2.59.22,3.88s.27,2.53.48,3.72c.21,1.2.48,2.25.8,3.16.32.91.72,1.64,1.19,2.19.47.55,1.03.82,1.67.82Z"/>
    <path class="cls-3" d="M342.68,329.76c0,.83.1,1.48.3,1.95.2.47.46.82.76,1.05.3.23.63.4.98.49s.68.19.98.29.56.25.76.44c.2.19.3.51.3.96,0,2.31-1.09,3.98-3.26,5-2.18,1.02-5.32,1.54-9.44,1.54-1.99,0-3.75-.12-5.29-.36s-2.82-.63-3.87-1.17c-1.05-.54-1.85-1.22-2.39-2.04-.54-.82-.82-1.81-.82-2.96,0-.45.1-.77.3-.96.2-.19.45-.34.75-.44s.62-.19.97-.27c.35-.08.67-.24.97-.47.29-.23.54-.57.75-1,.2-.44.3-1.07.3-1.9v-16.24c0-.81-.1-1.44-.3-1.89-.2-.45-.45-.79-.75-1.02-.3-.23-.62-.39-.97-.47-.35-.08-.67-.17-.97-.27s-.54-.25-.75-.44c-.2-.19-.3-.51-.3-.96,0-1.16.27-2.14.82-2.96s1.34-1.5,2.39-2.04,2.34-.93,3.87-1.17,3.29-.36,5.29-.36c1.81,0,3.25.17,4.32.5s1.9.7,2.49,1.11c.68.49,1.15,1.02,1.41,1.61.96-.75,2.1-1.43,3.43-2.04,1.14-.53,2.54-1,4.19-1.43,1.65-.43,3.58-.64,5.8-.64,2.03,0,3.78.28,5.24.84,1.47.56,2.71,1.31,3.73,2.25,1.02.94,1.85,2.04,2.48,3.28s1.11,2.55,1.45,3.91c.34,1.36.57,2.73.69,4.12.12,1.39.18,2.71.18,3.97v10.06c0,.85.1,1.52.3,1.99.2.48.46.84.77,1.09.31.25.65.43,1.01.52.36.09.7.19,1.01.3.31.11.57.26.77.46.2.19.3.51.3.96,0,2.31-1.08,3.98-3.25,5-2.17,1.02-5.31,1.54-9.42,1.54-1.99,0-3.75-.12-5.29-.36s-2.82-.63-3.87-1.17c-1.05-.54-1.85-1.22-2.39-2.04-.54-.82-.82-1.81-.82-2.96,0-.45.1-.77.3-.96.2-.19.46-.34.77-.44.31-.1.65-.19,1-.27.35-.08.68-.24,1-.47.31-.23.57-.57.78-1,.2-.44.3-1.07.3-1.9v-12.98c0-1.26-.09-2.38-.26-3.36-.18-.98-.47-1.81-.88-2.49-.42-.68-.96-1.2-1.65-1.55-.68-.35-1.53-.53-2.55-.53-.65,0-1.25.12-1.83.35-.57.23-1.07.56-1.49.97-.42.42-.76.91-1.01,1.49s-.37,1.2-.37,1.87l-.05,16.11Z"/>
    <path class="cls-3" d="M172.81,268.24v-20.04h7.56c1.33,0,2.35.06,3.05.19.98.16,1.81.48,2.47.94.67.46,1.2,1.11,1.61,1.93.41.83.61,1.74.61,2.73,0,1.7-.54,3.15-1.63,4.33-1.08,1.18-3.04,1.77-5.88,1.77h-5.14v8.15h-2.65ZM175.46,257.73h5.18c1.71,0,2.93-.32,3.65-.96.72-.64,1.08-1.54,1.08-2.69,0-.84-.21-1.56-.64-2.15s-.98-.99-1.67-1.18c-.45-.12-1.27-.18-2.47-.18h-5.13v7.16Z"/>
    <path class="cls-3" d="M186.76,268.24l7.7-20.04h2.86l8.2,20.04h-3.02l-2.34-6.07h-8.38l-2.2,6.07h-2.82ZM192.54,260.01h6.79l-2.09-5.55c-.64-1.69-1.11-3.07-1.42-4.16-.26,1.29-.62,2.56-1.08,3.83l-2.2,5.88Z"/>
    <path class="cls-3" d="M207.23,268.24v-20.04h8.89c1.79,0,3.14.18,4.07.54s1.67,1,2.23,1.91c.56.91.83,1.92.83,3.02,0,1.42-.46,2.62-1.38,3.6-.92.98-2.34,1.59-4.27,1.86.7.34,1.23.67,1.6,1,.77.71,1.51,1.6,2.2,2.67l3.49,5.46h-3.34l-2.65-4.17c-.78-1.2-1.41-2.12-1.91-2.76-.5-.64-.95-1.08-1.35-1.34s-.8-.43-1.21-.53c-.3-.06-.79-.1-1.48-.1h-3.08v8.9h-2.65ZM209.88,257.04h5.7c1.21,0,2.16-.12,2.84-.38s1.2-.65,1.56-1.2.53-1.15.53-1.8c0-.95-.34-1.73-1.03-2.34-.69-.61-1.78-.92-3.26-.92h-6.34v6.63Z"/>
    <path class="cls-3" d="M231.17,268.24v-17.68h-6.6v-2.37h15.89v2.37h-6.63v17.68h-2.65Z"/>
    <path class="cls-3" d="M173.74,428.71v-21.29h2.82v8.74h11.07v-8.74h2.82v21.29h-2.82v-10.03h-11.07v10.03h-2.82Z"/>
    <path class="cls-3" d="M195.02,428.71v-21.29h2.82v21.29h-2.82Z"/>
    <path class="cls-3" d="M202.18,428.71v-21.29h2.89l11.18,16.71v-16.71h2.7v21.29h-2.89l-11.18-16.73v16.73h-2.7Z"/>
    <path class="cls-3" d="M228.86,428.71v-18.78h-7.01v-2.51h16.87v2.51h-7.04v18.78h-2.82Z"/>
    <path class="cls-3" d="M257.06,428.71h-2.61v-16.66c-.63.6-1.45,1.2-2.48,1.8s-1.94,1.05-2.75,1.35v-2.53c1.46-.69,2.74-1.52,3.83-2.5s1.87-1.93,2.32-2.85h1.68v21.38Z"/>
    <rect class="cls-3" x="126" y="386.38" width="182" height=".25"/>
    <path class="cls-1" d="M213.97,675.93c0,1.09-.15,2.08-.44,2.95-.29.88-.7,1.66-1.23,2.34-.53.68-1.16,1.26-1.9,1.75-.74.48-1.54.88-2.42,1.19s-1.81.54-2.8.68c-.99.15-2.01.22-3.05.22-1.25,0-2.45-.07-3.59-.22-1.15-.15-2.22-.38-3.21-.69-1-.31-1.9-.71-2.71-1.2-.81-.48-1.5-1.07-2.08-1.75-.58-.69-1.03-1.47-1.34-2.35-.32-.88-.47-1.88-.47-2.98v-11.04c0-.49-.07-.88-.2-1.16-.14-.28-.3-.48-.5-.62s-.41-.24-.64-.3-.44-.12-.64-.18-.36-.15-.5-.27-.2-.31-.2-.58c0-.7.18-1.3.55-1.8.37-.5.9-.91,1.6-1.23.7-.32,1.57-.56,2.6-.71s2.21-.23,3.53-.23,2.59.08,3.64.23c1.06.15,1.94.39,2.66.71.71.32,1.25.73,1.62,1.23s.55,1.1.55,1.8c0,.27-.07.46-.2.58-.14.12-.3.21-.5.27s-.41.12-.65.17c-.24.05-.45.14-.65.28s-.36.34-.5.62c-.14.28-.2.66-.2,1.16v11.07c0,.79.11,1.46.34,2.01.22.55.54,1,.94,1.35.4.35.89.6,1.44.76.56.16,1.17.24,1.83.24.62,0,1.2-.08,1.73-.24s1-.42,1.39-.77c.39-.35.71-.8.94-1.35s.35-1.21.35-1.99v-11.04c0-.49-.07-.88-.2-1.16-.14-.28-.3-.48-.5-.62s-.41-.24-.65-.3c-.24-.06-.45-.12-.65-.18s-.36-.15-.5-.27-.2-.31-.2-.58c0-.7.17-1.3.51-1.8s.76-.91,1.28-1.23,1.09-.56,1.7-.71c.62-.15,1.21-.23,1.79-.23.51,0,1.05.08,1.65.23.59.15,1.14.39,1.65.71s.93.73,1.26,1.23.5,1.1.5,1.8c0,.27-.07.46-.2.58-.14.12-.3.21-.51.28-.2.07-.42.13-.66.19s-.46.16-.66.3c-.2.15-.37.36-.51.64s-.2.68-.2,1.2l.03,11.02h-.02Z"/>
    <path class="cls-1" d="M270.44,669.71c0,.6-.07,1.18-.2,1.74-.14.56-.34,1.06-.62,1.49s-.64.78-1.08,1.05c-.44.26-.97.4-1.59.4-.36,0-.66-.08-.91-.23-.25-.15-.47-.37-.66-.64-.19-.28-.38-.6-.56-.99-.18-.38-.38-.8-.61-1.27l-1.35-.17v9.4l5.77-.27.69-2.94c.19-.64.42-1.18.69-1.63.27-.44.57-.8.89-1.08s.66-.48,1.02-.6.72-.19,1.08-.19c.42,0,.8.07,1.16.21.36.14.67.35.94.62.26.27.47.59.62.97.15.38.22.8.22,1.27s-.05.96-.14,1.49c-.1.53-.24,1.06-.42,1.59-.19.52-.42,1.03-.7,1.51s-.61.91-1,1.28c-.38.37-.81.67-1.29.89-.48.22-1,.33-1.58.33h-14.68c-1.33,0-2.51-.08-3.53-.23-1.03-.15-1.9-.39-2.6-.71-.7-.32-1.24-.73-1.6-1.24-.37-.51-.55-1.11-.55-1.81,0-.27.07-.46.2-.58s.3-.21.5-.27.41-.12.64-.18.44-.15.64-.3c.2-.14.36-.35.5-.62.13-.27.2-.66.2-1.16v-12.72c0-.49-.07-.88-.2-1.16-.14-.28-.3-.48-.5-.62s-.41-.24-.64-.3-.44-.12-.64-.18-.36-.15-.5-.27-.2-.31-.2-.58c0-.7.18-1.3.55-1.8.37-.5.9-.91,1.6-1.23.7-.32,1.57-.56,2.6-.71s2.21-.23,3.53-.23h14.48c.82,0,1.54.23,2.14.67.61.45,1.11,1.02,1.51,1.7.4.68.7,1.41.89,2.2.2.79.3,1.52.3,2.19,0,.45-.07.85-.21,1.21-.14.36-.34.66-.59.91s-.55.44-.89.57c-.34.14-.71.2-1.11.2-.35,0-.69-.06-1.03-.18s-.66-.31-.96-.57-.59-.61-.84-1.03c-.26-.42-.48-.94-.66-1.54l-.66-2.82h-5.64v7.76l1.35-.17c.23-.45.43-.87.61-1.25s.37-.71.56-.99c.19-.28.41-.49.66-.64s.55-.23.91-.23c.62,0,1.15.13,1.59.4.44.26.8.61,1.08,1.04s.49.92.62,1.48.2,1.13.2,1.71v.05Z"/>
    <path class="cls-1" d="M173.66,669.26c.22-.45.43-.87.61-1.25.18-.38.37-.71.56-.99.19-.28.41-.49.66-.64s.55-.23.91-.23c.61,0,1.13.13,1.58.4.44.26.81.61,1.09,1.04s.49.92.62,1.48c.13.56.2,1.13.2,1.71s-.07,1.18-.2,1.74c-.14.56-.34,1.06-.62,1.49s-.64.78-1.09,1.05c-.44.26-.97.4-1.58.4-.36,0-.66-.08-.91-.23-.25-.15-.47-.37-.66-.64-.19-.28-.38-.6-.56-.98s-.38-.8-.61-1.26l-1.75-.19v5.6c0,.5.07.88.2,1.16.14.28.3.48.51.62.2.14.42.24.66.3s.46.12.66.18.37.15.51.27.2.31.2.58c0,.7-.18,1.3-.55,1.81-.37.51-.9.92-1.61,1.24s-1.58.56-2.61.71-2.21.23-3.53.23-2.51-.08-3.53-.23c-1.03-.15-1.9-.39-2.6-.71-.7-.32-1.24-.73-1.6-1.24-.37-.51-.55-1.11-.55-1.81,0-.27.07-.46.2-.58s.3-.21.5-.27.41-.12.64-.18.44-.15.64-.3c.2-.14.36-.35.5-.62s.2-.66.2-1.16v-12.72c0-.49-.07-.88-.2-1.16-.14-.28-.3-.48-.5-.62s-.41-.24-.64-.3-.44-.12-.64-.18-.36-.15-.5-.27-.2-.31-.2-.58c0-.7.18-1.3.55-1.8.37-.5.9-.91,1.6-1.23.7-.32,1.57-.56,2.6-.71s2.21-.23,3.53-.23h13.85c.82,0,1.54.23,2.14.67.61.45,1.11,1.02,1.51,1.7s.7,1.41.89,2.2c.2.79.3,1.52.3,2.19,0,.45-.07.85-.21,1.21-.14.36-.34.66-.59.91s-.55.44-.89.57c-.34.14-.71.2-1.11.2-.35,0-.69-.06-1.03-.18s-.66-.31-.96-.57-.58-.61-.84-1.03c-.25-.42-.46-.94-.63-1.54v-2.82h-6.87v7.95l1.75-.19v.03Z"/>
    <path class="cls-1" d="M238.9,664.64c.15-.4.22-.74.22-1.01s-.06-.48-.19-.62c-.12-.14-.28-.25-.46-.33-.18-.08-.38-.14-.59-.18-.21-.04-.41-.09-.59-.16-.18-.07-.33-.16-.46-.28-.12-.12-.19-.3-.19-.53,0-.54.11-1.05.32-1.53.21-.48.53-.9.95-1.26s.94-.65,1.57-.86c.62-.21,1.35-.32,2.17-.32s1.56.11,2.19.32,1.16.5,1.58.86.74.78.95,1.26c.21.48.32.99.32,1.53,0,.27-.07.46-.21.58s-.33.21-.56.28-.49.13-.78.19-.57.16-.85.3c-.28.15-.55.36-.8.64s-.46.68-.63,1.2l-5.08,12.38c-.63,1.55-1.17,2.85-1.62,3.89-.45,1.04-.88,1.88-1.3,2.51s-.85,1.08-1.29,1.34c-.44.26-.98.4-1.59.4-.54,0-1.02-.16-1.45-.49s-.87-.87-1.34-1.64c-.47-.76-.99-1.78-1.57-3.04-.58-1.26-1.28-2.82-2.1-4.69l-4.71-10.66c-.21-.48-.44-.86-.69-1.14s-.5-.49-.75-.63c-.25-.15-.5-.25-.73-.31s-.44-.13-.62-.2-.32-.17-.43-.3c-.11-.13-.16-.33-.16-.6,0-1.39.72-2.4,2.17-3.03,1.45-.62,3.54-.94,6.29-.94,1.33,0,2.51.08,3.54.23,1.03.15,1.9.39,2.61.71.7.32,1.24.73,1.6,1.23.37.5.55,1.1.55,1.8,0,.23-.06.4-.17.52s-.25.22-.42.29-.35.12-.56.17c-.2.05-.39.11-.56.19s-.31.18-.42.31-.17.32-.17.57c0,.14.02.29.06.46.04.17.1.37.19.6l2.77,6.75c.11.26.23.49.35.68.12.2.26.3.42.3.12,0,.26-.08.4-.25s.29-.47.45-.89l2.35-6.58.02-.02Z"/>
    <rect class="cls-2" x="47.19" y="32.5" width="339.62" height="5"/>
    <path class="cls-3" d="M263.85,265.74v2.5h-14.03c-.02-.63.08-1.23.3-1.81.36-.96.93-1.9,1.72-2.82.79-.93,1.92-2,3.41-3.21,2.31-1.89,3.87-3.39,4.68-4.5s1.22-2.15,1.22-3.13-.37-1.9-1.11-2.61c-.74-.71-1.7-1.06-2.89-1.06-1.25,0-2.26.38-3.01,1.13-.75.75-1.13,1.8-1.14,3.13l-2.68-.28c.18-2,.87-3.52,2.07-4.57,1.2-1.05,2.8-1.57,4.82-1.57s3.65.56,4.84,1.69c1.19,1.13,1.78,2.53,1.78,4.2,0,.85-.17,1.68-.52,2.5s-.92,1.68-1.73,2.59-2.15,2.15-4.02,3.74c-1.56,1.31-2.57,2.2-3.01,2.67-.44.47-.81.94-1.1,1.41h10.41Z"/>
  </g>
</svg>