<svg width="208" height="69" viewBox="0 0 208 69" fill="none" xmlns="http://www.w3.org/2000/svg">
<g filter="url(#filter0_b_199_187)">
<rect width="206" height="62" rx="31" fill="white" fill-opacity="0.9"/>
</g>
<path d="M29.984 24.744H31.696V26.888C31.696 27.8053 31.616 28.7013 31.456 29.576C31.296 30.44 31.0453 31.2453 30.704 31.992C30.3733 32.7387 29.952 33.4053 29.44 33.992C28.928 34.568 28.3253 35.0267 27.632 35.368L26.352 33.656C26.9813 33.368 27.52 32.984 27.968 32.504C28.4267 32.024 28.8053 31.48 29.104 30.872C29.4027 30.264 29.6213 29.624 29.76 28.952C29.9093 28.2693 29.984 27.5813 29.984 26.888V24.744ZM30.4 24.744H32.112V26.888C32.112 27.56 32.176 28.2213 32.304 28.872C32.4427 29.5227 32.6507 30.1413 32.928 30.728C33.216 31.304 33.5733 31.8213 34 32.28C34.4267 32.7387 34.9387 33.1173 35.536 33.416L34.24 35.112C33.5787 34.7707 33.0027 34.3227 32.512 33.768C32.032 33.2027 31.6373 32.5573 31.328 31.832C31.0187 31.096 30.784 30.312 30.624 29.48C30.4747 28.6373 30.4 27.7733 30.4 26.888V24.744ZM36.112 23.608H38.256V38.424H36.112V23.608ZM37.792 29.304H40.4V31.064H37.792V29.304ZM44.0628 28.552H46.1748V31.272H44.0628V28.552ZM49.2628 28.552H51.3908V31.272H49.2628V28.552ZM41.0388 30.632H54.4468V32.296H41.0388V30.632ZM47.7108 33.048C49.3108 33.048 50.5694 33.2827 51.4868 33.752C52.4041 34.2107 52.8628 34.872 52.8628 35.736C52.8628 36.5893 52.4041 37.2507 51.4868 37.72C50.5694 38.1893 49.3108 38.424 47.7108 38.424C46.1108 38.424 44.8521 38.1893 43.9348 37.72C43.0281 37.2507 42.5748 36.5893 42.5748 35.736C42.5748 34.872 43.0281 34.2107 43.9348 33.752C44.8521 33.2827 46.1108 33.048 47.7108 33.048ZM47.7108 34.648C47.0494 34.648 46.4948 34.6907 46.0468 34.776C45.6094 34.8507 45.2788 34.968 45.0548 35.128C44.8308 35.288 44.7188 35.4907 44.7188 35.736C44.7188 35.9813 44.8308 36.1893 45.0548 36.36C45.2788 36.52 45.6094 36.6373 46.0468 36.712C46.4948 36.7867 47.0494 36.824 47.7108 36.824C48.3721 36.824 48.9214 36.7867 49.3588 36.712C49.8068 36.6373 50.1428 36.52 50.3668 36.36C50.5908 36.1893 50.7028 35.9813 50.7028 35.736C50.7028 35.4907 50.5908 35.288 50.3668 35.128C50.1428 34.968 49.8068 34.8507 49.3588 34.776C48.9214 34.6907 48.3721 34.648 47.7108 34.648ZM47.7428 23.816C48.8414 23.816 49.7908 23.9333 50.5908 24.168C51.4014 24.392 52.0254 24.7173 52.4628 25.144C52.9001 25.5707 53.1188 26.0773 53.1188 26.664C53.1188 27.2507 52.9001 27.7573 52.4628 28.184C52.0254 28.6 51.4014 28.9253 50.5908 29.16C49.7908 29.384 48.8414 29.496 47.7428 29.496C46.6654 29.496 45.7214 29.384 44.9108 29.16C44.1001 28.9253 43.4761 28.6 43.0388 28.184C42.6014 27.7573 42.3828 27.2507 42.3828 26.664C42.3828 26.0773 42.6014 25.5707 43.0388 25.144C43.4761 24.7173 44.1001 24.392 44.9108 24.168C45.7214 23.9333 46.6654 23.816 47.7428 23.816ZM47.7428 25.432C47.0814 25.432 46.5108 25.48 46.0308 25.576C45.5508 25.6613 45.1881 25.7947 44.9428 25.976C44.7081 26.1573 44.5908 26.3867 44.5908 26.664C44.5908 26.9307 44.7081 27.1547 44.9428 27.336C45.1881 27.5173 45.5508 27.656 46.0308 27.752C46.5108 27.8373 47.0814 27.88 47.7428 27.88C48.4254 27.88 49.0014 27.8373 49.4708 27.752C49.9401 27.656 50.2974 27.5173 50.5428 27.336C50.7881 27.1547 50.9108 26.9307 50.9108 26.664C50.9108 26.3867 50.7881 26.1573 50.5428 25.976C50.2974 25.7947 49.9401 25.6613 49.4708 25.576C49.0014 25.48 48.4254 25.432 47.7428 25.432ZM66.4026 32.648C67.4373 32.648 68.328 32.7653 69.0746 33C69.8213 33.224 70.3973 33.5547 70.8026 33.992C71.208 34.4187 71.4106 34.936 71.4106 35.544C71.4106 36.1413 71.208 36.6587 70.8026 37.096C70.3973 37.5333 69.8213 37.864 69.0746 38.088C68.328 38.3227 67.4373 38.44 66.4026 38.44C65.3786 38.44 64.488 38.3227 63.7306 38.088C62.984 37.864 62.4026 37.5333 61.9866 37.096C61.5813 36.6587 61.3786 36.1413 61.3786 35.544C61.3786 34.936 61.5813 34.4187 61.9866 33.992C62.4026 33.5547 62.984 33.224 63.7306 33C64.488 32.7653 65.3786 32.648 66.4026 32.648ZM66.4026 34.328C65.7733 34.328 65.2453 34.3707 64.8186 34.456C64.392 34.5413 64.0666 34.6747 63.8426 34.856C63.6186 35.0267 63.5066 35.256 63.5066 35.544C63.5066 35.8213 63.6186 36.056 63.8426 36.248C64.0666 36.4293 64.392 36.568 64.8186 36.664C65.2453 36.7493 65.7733 36.792 66.4026 36.792C67.032 36.792 67.56 36.7493 67.9866 36.664C68.424 36.568 68.7493 36.4293 68.9626 36.248C69.1866 36.056 69.2986 35.8213 69.2986 35.544C69.2986 35.256 69.1866 35.0267 68.9626 34.856C68.7493 34.6747 68.424 34.5413 67.9866 34.456C67.56 34.3707 67.032 34.328 66.4026 34.328ZM69.1066 23.608H71.2346V32.328H69.1066V23.608ZM70.6586 27.048H73.2026V28.792H70.6586V27.048ZM60.0026 24.536H62.1146V26.376H65.0266V24.536H67.1226V31.512H60.0026V24.536ZM62.1146 28.008V29.848H65.0266V28.008H62.1146ZM74.5934 24.36H76.7054V26.232H79.5214V24.36H81.6174V31.288H74.5934V24.36ZM76.7054 27.848V29.576H79.5214V27.848H76.7054ZM81.1374 26.968H84.7374V28.696H81.1374V26.968ZM84.2414 23.608H86.3854V31.72H84.2414V23.608ZM76.5454 32.344H78.6574V33.656H84.2734V32.344H86.3694V38.232H76.5454V32.344ZM78.6574 35.304V36.552H84.2734V35.304H78.6574ZM92.5173 34.968H105.941V36.696H92.5173V34.968ZM98.1493 31.8H100.261V35.384H98.1493V31.8ZM93.9253 24.536H96.0533V26.824H102.357V24.536H104.469V32.248H93.9253V24.536ZM96.0533 28.488V30.552H102.357V28.488H96.0533ZM117.188 23.576H119.3V38.44H117.188V23.576ZM114.868 28.92H117.62V30.632H114.868V28.92ZM107.412 33.272H108.628C109.439 33.272 110.196 33.2613 110.9 33.24C111.615 33.2187 112.313 33.1813 112.996 33.128C113.679 33.064 114.377 32.9733 115.092 32.856L115.284 34.584C114.548 34.7013 113.828 34.792 113.124 34.856C112.42 34.92 111.7 34.9627 110.964 34.984C110.239 35.0053 109.46 35.016 108.628 35.016H107.412V33.272ZM107.396 24.84H114.068V30.424H109.524V33.784H107.412V28.744H111.972V26.536H107.396V24.84ZM130.771 23.576H132.915V38.392H130.771V23.576ZM132.371 29.256H134.979V31H132.371V29.256ZM126.883 25.112H128.979C128.979 26.5947 128.765 27.9973 128.339 29.32C127.923 30.6427 127.229 31.8587 126.259 32.968C125.299 34.0667 123.997 35.0267 122.355 35.848L121.155 34.232C122.456 33.56 123.528 32.8027 124.371 31.96C125.224 31.1173 125.853 30.1627 126.259 29.096C126.675 28.0187 126.883 26.8187 126.883 25.496V25.112ZM121.971 25.112H127.987V26.824H121.971V25.112ZM145.922 23.592H148.05V38.408H145.922V23.592ZM141.554 25.128H143.65C143.65 26.2587 143.538 27.3413 143.314 28.376C143.1 29.4 142.738 30.3653 142.226 31.272C141.724 32.1787 141.031 33.0213 140.146 33.8C139.271 34.568 138.178 35.272 136.866 35.912L135.746 34.232C137.175 33.5387 138.311 32.776 139.154 31.944C140.007 31.1013 140.62 30.152 140.994 29.096C141.367 28.0293 141.554 26.8347 141.554 25.512V25.128ZM136.546 25.128H142.546V26.824H136.546V25.128Z" fill="black"/>
<g filter="url(#filter1_d_199_187)">
<path d="M162 29.3227C161.074 29.3227 160.323 30.0737 160.323 31C160.323 31.9263 161.074 32.6773 162 32.6773L162 29.3227ZM187.186 32.186C187.841 31.531 187.841 30.469 187.186 29.814L176.512 19.1397C175.857 18.4847 174.795 18.4847 174.14 19.1397C173.485 19.7947 173.485 20.8567 174.14 21.5117L183.628 31L174.14 40.4883C173.485 41.1433 173.485 42.2053 174.14 42.8603C174.795 43.5153 175.857 43.5153 176.512 42.8603L187.186 32.186ZM162 32.6773L186 32.6773L186 29.3227L162 29.3227L162 32.6773Z" fill="black"/>
</g>
<defs>
<filter id="filter0_b_199_187" x="-10.58" y="-10.58" width="227.16" height="83.16" filterUnits="userSpaceOnUse" color-interpolation-filters="sRGB">
<feFlood flood-opacity="0" result="BackgroundImageFix"/>
<feGaussianBlur in="BackgroundImageFix" stdDeviation="5.29"/>
<feComposite in2="SourceAlpha" operator="in" result="effect1_backgroundBlur_199_187"/>
<feBlend mode="normal" in="SourceGraphic" in2="effect1_backgroundBlur_199_187" result="shape"/>
</filter>
<filter id="filter1_d_199_187" x="140.754" y="4.67092" width="66.4915" height="63.8402" filterUnits="userSpaceOnUse" color-interpolation-filters="sRGB">
<feFlood flood-opacity="0" result="BackgroundImageFix"/>
<feColorMatrix in="SourceAlpha" type="matrix" values="0 0 0 0 0 0 0 0 0 0 0 0 0 0 0 0 0 0 127 0" result="hardAlpha"/>
<feMorphology radius="2.7955" operator="dilate" in="SourceAlpha" result="effect1_dropShadow_199_187"/>
<feOffset dy="5.59101"/>
<feGaussianBlur stdDeviation="8.38651"/>
<feComposite in2="hardAlpha" operator="out"/>
<feColorMatrix type="matrix" values="0 0 0 0 0.57124 0 0 0 0 0.57124 0 0 0 0 0.57124 0 0 0 0.14 0"/>
<feBlend mode="normal" in2="BackgroundImageFix" result="effect1_dropShadow_199_187"/>
<feBlend mode="normal" in="SourceGraphic" in2="effect1_dropShadow_199_187" result="shape"/>
</filter>
</defs>
</svg>
