<svg width="98" height="24" viewBox="0 0 98 24" fill="none" xmlns="http://www.w3.org/2000/svg">
<path d="M13.3111 9.62714C13.5029 9.2434 13.6756 8.88844 13.8291 8.56226C13.9826 8.23608 14.1409 7.95786 14.304 7.72762C14.4671 7.48778 14.6542 7.3055 14.8652 7.18078C15.0763 7.04647 15.3353 6.97932 15.6423 6.97932C16.1604 6.97932 16.6065 7.09444 16.9806 7.32469C17.3644 7.54534 17.6761 7.83794 17.916 8.2025C18.1558 8.56705 18.3333 8.98917 18.4484 9.46885C18.5636 9.93893 18.6211 10.4234 18.6211 10.9223C18.6211 11.4307 18.5636 11.9248 18.4484 12.4045C18.3333 12.8842 18.1558 13.3111 17.916 13.6852C17.6761 14.0498 17.3644 14.3472 16.9806 14.5774C16.6065 14.7981 16.1604 14.9084 15.6423 14.9084C15.3353 14.9084 15.0763 14.846 14.8652 14.7213C14.6542 14.587 14.4671 14.4047 14.304 14.1745C14.1409 13.9347 13.9826 13.6564 13.8291 13.3399C13.6756 13.0137 13.5029 12.6539 13.3111 12.2606L11.8145 12.1023V16.8799C11.8145 17.302 11.872 17.633 11.9872 17.8728C12.1023 18.1031 12.2462 18.2805 12.4189 18.4053C12.5916 18.5204 12.7786 18.6019 12.9801 18.6499C13.1816 18.6979 13.3686 18.7506 13.5413 18.8082C13.714 18.8562 13.8579 18.9329 13.973 19.0384C14.0882 19.1344 14.1457 19.2975 14.1457 19.5277C14.1457 20.1225 13.9874 20.6358 13.6708 21.0675C13.3638 21.4992 12.9081 21.8541 12.3037 22.1324C11.6994 22.401 10.9559 22.6024 10.0732 22.7367C9.20023 22.8615 8.1977 22.9238 7.06566 22.9238C5.93362 22.9238 4.9263 22.8615 4.04369 22.7367C3.17067 22.6024 2.43197 22.401 1.82757 22.1324C1.23277 21.8541 0.777079 21.4992 0.460491 21.0675C0.153497 20.6358 0 20.1225 0 19.5277C0 19.2975 0.0575614 19.1344 0.172684 19.0384C0.287807 18.9329 0.426914 18.8562 0.590004 18.8082C0.762689 18.7506 0.944966 18.6979 1.13684 18.6499C1.3383 18.6019 1.52058 18.5204 1.68367 18.4053C1.85636 18.2805 2.00026 18.1031 2.11538 17.8728C2.2305 17.6426 2.28807 17.3116 2.28807 16.8799V6.02956C2.28807 5.60744 2.2305 5.28126 2.11538 5.05101C2.00026 4.81117 1.85636 4.63369 1.68367 4.51857C1.52058 4.39385 1.3383 4.30751 1.13684 4.25954C0.944966 4.21158 0.762689 4.16361 0.590004 4.11564C0.426914 4.05808 0.287807 3.98133 0.172684 3.88539C0.0575614 3.77987 0 3.61198 0 3.38173C0 2.78693 0.153497 2.27847 0.460491 1.85635C0.777079 1.42464 1.23277 1.07448 1.82757 0.80586C2.43197 0.527646 3.17067 0.326181 4.04369 0.201465C4.9263 0.067155 5.93362 0 7.06566 0H18.8801C19.5805 0 20.1897 0.191871 20.7077 0.575614C21.2258 0.959357 21.6527 1.44383 21.9885 2.02904C22.3338 2.60465 22.5881 3.22824 22.7511 3.89978C22.9238 4.57133 23.0102 5.19492 23.0102 5.77053C23.0102 6.15427 22.9478 6.49964 22.8231 6.80663C22.708 7.11363 22.5401 7.37265 22.3194 7.58371C22.1084 7.79477 21.8541 7.95786 21.5567 8.07299C21.2689 8.18811 20.9571 8.24567 20.6214 8.24567C20.324 8.24567 20.0314 8.1977 19.7436 8.10177C19.4558 7.99624 19.1823 7.83315 18.9233 7.61249C18.6643 7.38225 18.4244 7.08965 18.2038 6.73468C17.9927 6.37013 17.8153 5.92882 17.6713 5.41077V3.00758H11.8145V9.78544L13.3111 9.62714Z" fill="white"/>
<path d="M46.9995 15.4984C46.9995 16.429 46.8747 17.2684 46.6253 18.0167C46.3759 18.765 46.0257 19.4318 45.5748 20.017C45.1239 20.5926 44.5819 21.0867 43.9487 21.4992C43.3251 21.9117 42.6392 22.2523 41.8909 22.5209C41.1426 22.7799 40.3463 22.9718 39.5021 23.0965C38.6579 23.2212 37.7896 23.2836 36.8974 23.2836C35.8325 23.2836 34.8108 23.2212 33.8323 23.0965C32.8537 22.9718 31.9376 22.7751 31.0837 22.5065C30.2395 22.2379 29.472 21.8973 28.7813 21.4848C28.0905 21.0723 27.4957 20.5734 26.9969 19.9882C26.5076 19.403 26.1287 18.7362 25.86 17.9879C25.5914 17.23 25.4571 16.381 25.4571 15.4408V6.02956C25.4571 5.60744 25.3995 5.28126 25.2844 5.05101C25.1693 4.81117 25.0254 4.63369 24.8527 4.51857C24.6896 4.39385 24.5073 4.30751 24.3059 4.25954C24.114 4.21158 23.9317 4.16361 23.759 4.11564C23.596 4.05808 23.4568 3.98133 23.3417 3.88539C23.2266 3.77987 23.169 3.61198 23.169 3.38173C23.169 2.78693 23.3225 2.27847 23.6295 1.85635C23.9461 1.42464 24.4018 1.07448 24.9966 0.80586C25.601 0.527646 26.3397 0.326181 27.2127 0.201465C28.0953 0.067155 29.1027 0 30.2347 0C31.4051 0 32.4412 0.067155 33.343 0.201465C34.2448 0.326181 34.9979 0.527646 35.6023 0.80586C36.2163 1.07448 36.6768 1.42464 36.9838 1.85635C37.3004 2.27847 37.4587 2.78693 37.4587 3.38173C37.4587 3.61198 37.4011 3.77987 37.286 3.88539C37.1708 3.98133 37.0269 4.05808 36.8543 4.11564C36.6912 4.16361 36.5089 4.21158 36.3074 4.25954C36.106 4.29792 35.9189 4.37467 35.7462 4.48979C35.5831 4.60491 35.444 4.78239 35.3289 5.02223C35.2138 5.25248 35.1562 5.57866 35.1562 6.00078V15.4408C35.1562 16.1124 35.2521 16.6832 35.444 17.1533C35.6359 17.6234 35.9045 18.0071 36.2499 18.3045C36.5952 18.6019 37.003 18.8178 37.473 18.9521C37.9527 19.0864 38.4756 19.1536 39.0416 19.1536C39.5692 19.1536 40.0585 19.0864 40.5094 18.9521C40.9699 18.8082 41.368 18.5875 41.7038 18.2901C42.0396 17.9927 42.3034 17.609 42.4953 17.1389C42.6967 16.6688 42.7975 16.1028 42.7975 15.4408V6.02956C42.7975 5.60744 42.7399 5.28126 42.6248 5.05101C42.5097 4.81117 42.3658 4.63369 42.1931 4.51857C42.03 4.39385 41.8477 4.30751 41.6462 4.25954C41.4448 4.21158 41.2577 4.16361 41.085 4.11564C40.9219 4.05808 40.7828 3.98133 40.6677 3.88539C40.5526 3.77987 40.495 3.61198 40.495 3.38173C40.495 2.78693 40.6389 2.27847 40.9267 1.85635C41.2145 1.42464 41.5791 1.07448 42.0204 0.80586C42.4617 0.527646 42.9462 0.326181 43.4738 0.201465C44.0015 0.067155 44.5099 0 44.9992 0C45.4309 0 45.8962 0.067155 46.3951 0.201465C46.9035 0.326181 47.3736 0.527646 47.8053 0.80586C48.237 1.07448 48.592 1.42464 48.8702 1.85635C49.158 2.27847 49.3019 2.78693 49.3019 3.38173C49.3019 3.61198 49.2444 3.77987 49.1292 3.88539C49.0141 3.98133 48.8702 4.05808 48.6975 4.11564C48.5248 4.1732 48.3378 4.22597 48.1363 4.27393C47.9348 4.3219 47.7478 4.40824 47.5751 4.53296C47.4024 4.65768 47.2585 4.83995 47.1434 5.07979C47.0282 5.31963 46.9707 5.6602 46.9707 6.10151L46.9995 15.4984Z" fill="white"/>
<path d="M67.348 6.02956C67.4727 5.68419 67.5351 5.39638 67.5351 5.16614C67.5351 4.93589 67.4823 4.76321 67.3768 4.64808C67.2712 4.52337 67.1417 4.42743 66.9882 4.36028C66.8347 4.29312 66.6668 4.24515 66.4846 4.21637C66.3023 4.178 66.1344 4.13003 65.9809 4.07247C65.8274 4.01491 65.6979 3.93816 65.5924 3.84222C65.4868 3.73669 65.4341 3.5832 65.4341 3.38173C65.4341 2.92124 65.5252 2.48953 65.7075 2.0866C65.8898 1.67408 66.1584 1.31432 66.5133 1.00732C66.8779 0.70033 67.324 0.455694 67.8516 0.273417C68.3889 0.0911389 69.0077 0 69.708 0C70.4179 0 71.0415 0.0911389 71.5787 0.273417C72.116 0.455694 72.5621 0.70033 72.917 1.00732C73.2816 1.31432 73.555 1.67408 73.7373 2.0866C73.9196 2.48953 74.0107 2.92124 74.0107 3.38173C74.0107 3.61198 73.9484 3.77987 73.8236 3.88539C73.7085 3.98133 73.5502 4.05808 73.3488 4.11564C73.1569 4.1732 72.9362 4.22597 72.6868 4.27393C72.447 4.3219 72.2071 4.40824 71.9673 4.53296C71.7274 4.65768 71.4972 4.83995 71.2766 5.07979C71.0655 5.31963 70.888 5.6602 70.7441 6.10151L66.4126 16.664C65.8754 17.9879 65.4149 19.096 65.0311 19.9882C64.6474 20.8708 64.278 21.5807 63.9231 22.118C63.5681 22.6552 63.1988 23.0342 62.815 23.2548C62.4409 23.485 61.99 23.6002 61.4623 23.6002C61.0018 23.6002 60.5893 23.4611 60.2248 23.1829C59.8602 22.9046 59.4765 22.4394 59.0735 21.787C58.6802 21.1346 58.2341 20.2712 57.7352 19.1967C57.246 18.1222 56.6512 16.7887 55.9508 15.1962L51.9359 6.10151C51.7536 5.68898 51.557 5.3676 51.3459 5.13735C51.1349 4.89752 50.919 4.71524 50.6983 4.59052C50.4873 4.4658 50.281 4.37946 50.0796 4.3315C49.8877 4.27393 49.715 4.21637 49.5615 4.15881C49.408 4.09166 49.2833 4.00531 49.1874 3.89978C49.101 3.78466 49.0578 3.61198 49.0578 3.38173C49.0578 2.19213 49.6718 1.33351 50.8998 0.80586C52.1374 0.26862 53.9266 0 56.2674 0C57.3995 0 58.4068 0.067155 59.2894 0.201465C60.172 0.326181 60.9107 0.527646 61.5055 0.80586C62.1099 1.07448 62.5656 1.42464 62.8726 1.85635C63.1892 2.27847 63.3475 2.78693 63.3475 3.38173C63.3475 3.5736 63.2995 3.7223 63.2036 3.82783C63.1076 3.93336 62.9877 4.01491 62.8438 4.07247C62.6999 4.13003 62.5416 4.178 62.3689 4.21637C62.1962 4.25475 62.0379 4.30751 61.894 4.37467C61.7501 4.44182 61.6302 4.53296 61.5343 4.64808C61.4383 4.75361 61.3904 4.91191 61.3904 5.12296C61.3904 5.23809 61.4048 5.3724 61.4336 5.52589C61.4719 5.6698 61.5295 5.83768 61.6062 6.02956L63.9663 11.7857C64.0622 12.0063 64.1629 12.203 64.2684 12.3757C64.374 12.5388 64.4939 12.6203 64.6282 12.6203C64.7337 12.6203 64.8441 12.5484 64.9592 12.4045C65.0839 12.2606 65.2134 12.0063 65.3477 11.6418L67.348 6.02956Z" fill="white"/>
<path d="M93.3087 10.7784C93.3087 11.2868 93.2512 11.7809 93.1361 12.2606C93.0209 12.7403 92.8435 13.1672 92.6036 13.5413C92.3638 13.9059 92.0568 14.2033 91.6826 14.4335C91.3085 14.6542 90.8576 14.7645 90.3299 14.7645C90.0229 14.7645 89.7639 14.7021 89.5529 14.5774C89.3418 14.4431 89.1547 14.2608 88.9916 14.0306C88.8286 13.7908 88.6703 13.5077 88.5168 13.1816C88.3633 12.8554 88.1906 12.4956 87.9987 12.1023L86.8475 11.9584V19.9738L91.769 19.7436L92.359 17.2396C92.5221 16.6928 92.7187 16.2323 92.949 15.8582C93.1792 15.4744 93.4287 15.1674 93.6973 14.9372C93.9755 14.6973 94.2681 14.5247 94.5751 14.4191C94.8821 14.3136 95.1891 14.2608 95.4961 14.2608C95.851 14.2608 96.182 14.3232 96.489 14.4479C96.796 14.563 97.0598 14.7357 97.2805 14.966C97.5107 15.1962 97.6882 15.4744 97.8129 15.8006C97.9376 16.1172 98 16.4769 98 16.8799C98 17.2732 97.9568 17.7001 97.8705 18.1606C97.7937 18.6115 97.6738 19.0624 97.5107 19.5133C97.3572 19.9546 97.1606 20.3815 96.9207 20.7941C96.6809 21.2066 96.3979 21.5711 96.0717 21.8877C95.7455 22.2043 95.3762 22.4585 94.9636 22.6504C94.5607 22.8327 94.1146 22.9238 93.6253 22.9238H81.1057C79.9737 22.9238 78.9664 22.8615 78.0838 22.7367C77.2107 22.6024 76.472 22.401 75.8676 22.1324C75.2728 21.8541 74.8172 21.4992 74.5006 21.0675C74.1936 20.6358 74.0401 20.1225 74.0401 19.5277C74.0401 19.2975 74.0976 19.1344 74.2128 19.0384C74.3279 18.9329 74.467 18.8562 74.6301 18.8082C74.8028 18.7506 74.985 18.6979 75.1769 18.6499C75.3784 18.6019 75.5607 18.5204 75.7237 18.4053C75.8964 18.2805 76.0403 18.1031 76.1554 17.8728C76.2706 17.6426 76.3281 17.3116 76.3281 16.8799V6.02956C76.3281 5.60744 76.2706 5.28126 76.1554 5.05101C76.0403 4.81117 75.8964 4.63369 75.7237 4.51857C75.5607 4.39385 75.3784 4.30751 75.1769 4.25954C74.985 4.21158 74.8028 4.16361 74.6301 4.11564C74.467 4.05808 74.3279 3.98133 74.2128 3.88539C74.0976 3.77987 74.0401 3.61198 74.0401 3.38173C74.0401 2.78693 74.1936 2.27847 74.5006 1.85635C74.8172 1.42464 75.2728 1.07448 75.8676 0.80586C76.472 0.527646 77.2107 0.326181 78.0838 0.201465C78.9664 0.067155 79.9737 0 81.1057 0H93.4527C94.153 0 94.7622 0.191871 95.2802 0.575614C95.7983 0.959357 96.2252 1.44383 96.561 2.02904C96.9063 2.60465 97.1606 3.22824 97.3237 3.89978C97.4963 4.57133 97.5827 5.19492 97.5827 5.77053C97.5827 6.15427 97.5203 6.49964 97.3956 6.80663C97.2805 7.11363 97.1126 7.37265 96.8919 7.58371C96.6809 7.79477 96.4267 7.95786 96.1293 8.07299C95.8414 8.18811 95.5297 8.24567 95.1939 8.24567C94.8965 8.24567 94.6039 8.1977 94.3161 8.10177C94.0283 7.99624 93.7548 7.83315 93.4958 7.61249C93.2368 7.38225 92.997 7.08965 92.7763 6.73468C92.5557 6.37013 92.3686 5.92882 92.2151 5.41077L91.6539 3.00758H86.8475V9.62714L87.9987 9.48324C88.1906 9.0995 88.3633 8.74454 88.5168 8.41835C88.6703 8.09217 88.8286 7.81396 88.9916 7.58371C89.1547 7.34387 89.3418 7.1616 89.5529 7.03688C89.7639 6.90257 90.0229 6.83542 90.3299 6.83542C90.8576 6.83542 91.3085 6.95054 91.6826 7.18078C92.0568 7.40144 92.3638 7.69404 92.6036 8.05859C92.8435 8.42315 93.0209 8.84527 93.1361 9.32495C93.2512 9.79503 93.3087 10.2795 93.3087 10.7784Z" fill="white"/>
</svg>
