<?xml version="1.0" encoding="UTF-8"?>
<svg id="_레이어_2" data-name="레이어_2" xmlns="http://www.w3.org/2000/svg" viewBox="0 0 434 712">
  <defs>
    <style>
      .cls-1 {
        font-family: Corben-Bold, Corben;
        font-size: 62.27px;
        font-weight: 700;
      }

      .cls-1, .cls-2, .cls-3, .cls-4 {
        fill: #fff;
      }

      .cls-5 {
        fill: #002160;
      }

      .cls-6 {
        stroke: #2f74b5;
        stroke-linecap: square;
        stroke-width: 5px;
      }

      .cls-6, .cls-7 {
        fill: none;
        stroke-miterlimit: 10;
      }

      .cls-7 {
        stroke: #fff;
        stroke-width: .25px;
      }

      .cls-3 {
        font-size: 28px;
        opacity: .6;
      }

      .cls-3, .cls-4 {
        font-family: ArialMT, Arial;
      }

      .cls-8 {
        fill: #2f74b5;
      }

      .cls-9 {
        fill: #f3eadf;
      }

      .cls-10 {
        letter-spacing: -.09em;
      }

      .cls-11 {
        letter-spacing: -.02em;
      }

      .cls-12 {
        letter-spacing: -.02em;
      }

      .cls-13 {
        letter-spacing: -.03em;
      }

      .cls-14 {
        letter-spacing: -.03em;
      }

      .cls-15 {
        letter-spacing: -.01em;
      }

      .cls-16 {
        letter-spacing: -.01em;
      }

      .cls-17 {
        letter-spacing: -.01em;
      }

      .cls-18 {
        letter-spacing: 0em;
      }

      .cls-19 {
        letter-spacing: 0em;
      }

      .cls-4 {
        font-size: 29.74px;
      }
    </style>
  </defs>
  <g id="_레이어_2-2" data-name="레이어_2">
    <g>
      <g>
        <rect class="cls-9" x="1" y="1" width="432" height="710" rx="42.81" ry="42.81"/>
        <path class="cls-2" d="M390.19,2c23.09,0,41.81,18.72,41.81,41.81v624.38c0,23.09-18.72,41.81-41.81,41.81H43.81c-23.09,0-41.81-18.72-41.81-41.81V43.81C2,20.72,20.72,2,43.81,2h346.38M390.19,0H43.81C19.65,0,0,19.65,0,43.81v624.38c0,24.16,19.65,43.81,43.81,43.81h346.38c24.16,0,43.81-19.65,43.81-43.81V43.81c0-24.16-19.65-43.81-43.81-43.81h0Z"/>
      </g>
      <ellipse class="cls-8" cx="217" cy="355.5" rx="173.5" ry="272.5"/>
      <text class="cls-1" transform="translate(60.08 341.47) scale(.91 1)"><tspan class="cls-17" x="0" y="0">I</tspan><tspan class="cls-18" x="32.62" y="0">d</tspan><tspan x="86.23" y="0">e</tspan><tspan class="cls-16" x="127.12" y="0">a</tspan><tspan x="173.67" y="0">t</tspan><tspan class="cls-15" x="207.82" y="0">i</tspan><tspan class="cls-19" x="238.25" y="0">o</tspan><tspan x="285.56" y="0">n</tspan></text>
      <text class="cls-3" transform="translate(170.65 268.24)"><tspan class="cls-10" x="0" y="0">P</tspan><tspan class="cls-11" x="16.15" y="0">A</tspan><tspan class="cls-14" x="34.38" y="0">RT</tspan><tspan class="cls-11" x="69.79" y="0" xml:space="preserve"> 1</tspan></text>
      <text class="cls-4" transform="translate(171.36 428.71)"><tspan class="cls-12" x="0" y="0">HIN</tspan><tspan class="cls-13" x="49.79" y="0">T</tspan><tspan class="cls-12" x="66.95" y="0" xml:space="preserve"> 1</tspan></text>
      <line class="cls-7" x1="126" y1="386.5" x2="308" y2="386.5"/>
      <g>
        <path class="cls-5" d="M213.97,675.93c0,1.09-.15,2.08-.44,2.95-.29.88-.7,1.66-1.23,2.34-.53.68-1.16,1.26-1.9,1.75-.74.48-1.54.88-2.42,1.19-.88.31-1.81.54-2.8.68-.99.15-2.01.22-3.05.22-1.25,0-2.45-.07-3.59-.22-1.15-.15-2.22-.38-3.21-.69-1-.31-1.9-.71-2.71-1.2-.81-.48-1.5-1.07-2.08-1.75-.58-.69-1.03-1.47-1.34-2.35-.32-.88-.47-1.88-.47-2.98v-11.04c0-.49-.07-.88-.2-1.16-.14-.28-.3-.48-.5-.62-.2-.14-.41-.24-.64-.3-.23-.06-.44-.12-.64-.18-.2-.06-.36-.15-.5-.27-.14-.12-.2-.31-.2-.58,0-.7.18-1.3.55-1.8.37-.5.9-.91,1.6-1.23.7-.32,1.57-.56,2.6-.71,1.03-.15,2.21-.23,3.53-.23s2.59.08,3.64.23c1.06.15,1.94.39,2.66.71.71.32,1.25.73,1.62,1.23.37.5.55,1.1.55,1.8,0,.27-.07.46-.2.58-.14.12-.3.21-.5.27-.2.06-.41.12-.65.17-.24.05-.45.14-.65.28-.2.14-.36.34-.5.62-.14.28-.2.66-.2,1.16v11.07c0,.79.11,1.46.34,2.01.22.55.54,1,.94,1.35.4.35.89.6,1.44.76.56.16,1.17.24,1.83.24.62,0,1.2-.08,1.73-.24.53-.16,1-.42,1.39-.77.39-.35.71-.8.94-1.35.23-.55.35-1.21.35-1.99v-11.04c0-.49-.07-.88-.2-1.16-.14-.28-.3-.48-.5-.62-.2-.14-.41-.24-.65-.3-.24-.06-.45-.12-.65-.18-.2-.06-.36-.15-.5-.27-.14-.12-.2-.31-.2-.58,0-.7.17-1.3.51-1.8.34-.5.76-.91,1.28-1.23.52-.32,1.09-.56,1.7-.71.62-.15,1.21-.23,1.79-.23.51,0,1.05.08,1.65.23.59.15,1.14.39,1.65.71.51.32.93.73,1.26,1.23.33.5.5,1.1.5,1.8,0,.27-.07.46-.2.58-.14.12-.3.21-.51.28-.2.07-.42.13-.66.19-.24.06-.46.16-.66.3-.2.15-.37.36-.51.64-.14.28-.2.68-.2,1.2l.03,11.02Z"/>
        <path class="cls-5" d="M270.44,670.61c0,.6-.07,1.18-.2,1.74-.14.56-.34,1.06-.62,1.49-.28.43-.64.78-1.08,1.05-.44.26-.97.4-1.59.4-.36,0-.66-.08-.91-.23-.25-.15-.47-.37-.66-.64-.19-.28-.38-.6-.56-.99-.18-.38-.38-.8-.61-1.27l-1.35-.17v9.4l5.77-.27.69-2.94c.19-.64.42-1.18.69-1.63.27-.44.57-.8.89-1.08.32-.28.66-.48,1.02-.6.36-.12.72-.19,1.08-.19.42,0,.8.07,1.16.21.36.14.67.35.94.62.26.27.47.59.62.97.15.38.22.8.22,1.27s-.05.96-.14,1.49c-.1.53-.24,1.06-.42,1.59-.19.52-.42,1.03-.7,1.51-.28.48-.61.91-1,1.28-.38.37-.81.67-1.29.89-.48.22-1,.33-1.58.33h-14.68c-1.33,0-2.51-.08-3.53-.23-1.03-.15-1.9-.39-2.6-.71-.7-.32-1.24-.73-1.6-1.24-.37-.51-.55-1.11-.55-1.81,0-.27.07-.46.2-.58s.3-.21.5-.27c.2-.06.41-.12.64-.18.23-.06.44-.15.64-.3.2-.14.36-.35.5-.62.13-.27.2-.66.2-1.16v-12.72c0-.49-.07-.88-.2-1.16-.14-.28-.3-.48-.5-.62-.2-.14-.41-.24-.64-.3-.23-.06-.44-.12-.64-.18-.2-.06-.36-.15-.5-.27-.14-.12-.2-.31-.2-.58,0-.7.18-1.3.55-1.8.37-.5.9-.91,1.6-1.23.7-.32,1.57-.56,2.6-.71,1.03-.15,2.21-.23,3.53-.23h14.48c.82,0,1.54.23,2.14.67.61.45,1.11,1.02,1.51,1.7.4.68.7,1.41.89,2.2.2.79.3,1.52.3,2.19,0,.45-.07.85-.21,1.21-.14.36-.34.66-.59.91-.25.25-.55.44-.89.57-.34.14-.71.2-1.11.2-.35,0-.69-.06-1.03-.18-.34-.12-.66-.31-.96-.57-.3-.26-.59-.61-.84-1.03-.26-.42-.48-.94-.66-1.54l-.66-2.82h-5.64v7.76l1.35-.17c.23-.45.43-.87.61-1.25.18-.38.37-.71.56-.99.19-.28.41-.49.66-.64.25-.15.55-.23.91-.23.62,0,1.15.13,1.59.4.44.26.8.61,1.08,1.04.28.43.49.92.62,1.48s.2,1.13.2,1.71Z"/>
        <path class="cls-5" d="M173.66,669.26c.22-.45.43-.87.61-1.25.18-.38.37-.71.56-.99.19-.28.41-.49.66-.64.25-.15.55-.23.91-.23.61,0,1.13.13,1.58.4.44.26.81.61,1.09,1.04.28.43.49.92.62,1.48.13.56.2,1.13.2,1.71s-.07,1.18-.2,1.74c-.14.56-.34,1.06-.62,1.49-.28.43-.64.78-1.09,1.05-.44.26-.97.4-1.58.4-.36,0-.66-.08-.91-.23-.25-.15-.47-.37-.66-.64-.19-.28-.38-.6-.56-.98-.18-.38-.38-.8-.61-1.26l-1.75-.19v5.6c0,.5.07.88.2,1.16.14.28.3.48.51.62.2.14.42.24.66.3.24.06.46.12.66.18.2.06.37.15.51.27s.2.31.2.58c0,.7-.18,1.3-.55,1.81-.37.51-.9.92-1.61,1.24-.71.32-1.58.56-2.61.71-1.03.15-2.21.23-3.53.23s-2.51-.08-3.53-.23c-1.03-.15-1.9-.39-2.6-.71-.7-.32-1.24-.73-1.6-1.24-.37-.51-.55-1.11-.55-1.81,0-.27.07-.46.2-.58s.3-.21.5-.27c.2-.06.41-.12.64-.18.23-.06.44-.15.64-.3.2-.14.36-.35.5-.62.14-.27.2-.66.2-1.16v-12.72c0-.49-.07-.88-.2-1.16-.14-.28-.3-.48-.5-.62-.2-.14-.41-.24-.64-.3-.23-.06-.44-.12-.64-.18-.2-.06-.36-.15-.5-.27-.14-.12-.2-.31-.2-.58,0-.7.18-1.3.55-1.8.37-.5.9-.91,1.6-1.23.7-.32,1.57-.56,2.6-.71,1.03-.15,2.21-.23,3.53-.23h13.85c.82,0,1.54.23,2.14.67.61.45,1.11,1.02,1.51,1.7.4.68.7,1.41.89,2.2.2.79.3,1.52.3,2.19,0,.45-.07.85-.21,1.21-.14.36-.34.66-.59.91-.25.25-.55.44-.89.57-.34.14-.71.2-1.11.2-.35,0-.69-.06-1.03-.18-.34-.12-.66-.31-.96-.57-.3-.26-.58-.61-.84-1.03-.25-.42-.46-.94-.63-1.54v-2.82h-6.87v7.95l1.75-.19Z"/>
        <path class="cls-5" d="M238.9,664.64c.15-.4.22-.74.22-1.01s-.06-.48-.19-.62c-.12-.14-.28-.25-.46-.33-.18-.08-.38-.14-.59-.18-.21-.04-.41-.09-.59-.16-.18-.07-.33-.16-.46-.28-.12-.12-.19-.3-.19-.53,0-.54.11-1.05.32-1.53.21-.48.53-.9.95-1.26.42-.36.94-.65,1.57-.86.62-.21,1.35-.32,2.17-.32s1.56.11,2.19.32c.63.21,1.16.5,1.58.86.42.36.74.78.95,1.26.21.48.32.99.32,1.53,0,.27-.07.46-.21.58-.14.12-.33.21-.56.28-.23.07-.49.13-.78.19-.29.06-.57.16-.85.3-.28.15-.55.36-.8.64-.25.28-.46.68-.63,1.2l-5.08,12.38c-.63,1.55-1.17,2.85-1.62,3.89-.45,1.04-.88,1.88-1.3,2.51-.42.63-.85,1.08-1.29,1.34-.44.26-.98.4-1.59.4-.54,0-1.02-.16-1.45-.49-.43-.33-.87-.87-1.34-1.64-.47-.76-.99-1.78-1.57-3.04-.58-1.26-1.28-2.82-2.1-4.69l-4.71-10.66c-.21-.48-.44-.86-.69-1.14-.25-.28-.5-.49-.75-.63-.25-.15-.5-.25-.73-.31-.23-.06-.44-.13-.62-.2-.18-.07-.32-.17-.43-.3-.11-.13-.16-.33-.16-.6,0-1.39.72-2.4,2.17-3.03,1.45-.62,3.54-.94,6.29-.94,1.33,0,2.51.08,3.54.23,1.03.15,1.9.39,2.61.71.7.32,1.24.73,1.6,1.23.37.5.55,1.1.55,1.8,0,.23-.06.4-.17.52-.11.12-.25.22-.42.29-.17.07-.35.12-.56.17-.2.05-.39.11-.56.19-.17.08-.31.18-.42.31-.11.13-.17.32-.17.57,0,.14.02.29.06.46.04.17.1.37.19.6l2.77,6.75c.11.26.23.49.35.68.12.2.26.3.42.3.12,0,.26-.08.4-.25.14-.17.29-.47.45-.89l2.35-6.58Z"/>
      </g>
      <line class="cls-6" x1="47.19" y1="35" x2="386.81" y2="35"/>
    </g>
  </g>
</svg>